<svg xmlns="http://www.w3.org/2000/svg" width="531.5" height="248"><g transform="translate(277, 182)"><g transform="scale(1.5, 1.5)"><path d="m0.5 8.5 L 0.5 4.5 A 4 4 90 0 1 4.5 0.5 L 8.5 0.5 L 8.5 2.5 L 18.5 2.5 L 18.5 0.5 L 50.1796875 0.5 L 54.1796875 0.5 A 4 4 90 0 1 58.1796875 4.5 L 58.1796875 8.5 L 54.1796875 8.5 L 54.1796875 5.5 L 50.1796875 5.5 L 50.1796875 15.5 L 54.1796875 15.5 L 54.1796875 12.5 L 58.1796875 12.5 L 58.1796875 29.5 L 54.1796875 29.5 L 54.1796875 26.5 L 50.1796875 26.5 L 50.1796875 36.5 L 54.1796875 36.5 L 54.1796875 33.5 L 58.1796875 33.5 L 58.1796875 37.5 A 4 4 90 0 1 54.1796875 41.5 L 50.1796875 41.5 L 18.5 41.5 L 17.5 41.5 L 17.5 43.5 L 9.5 43.5 L 9.5 41.5 L 8.5 41.5 L 4.5 41.5 A 4 4 90 0 1 0.5 37.5 L 0.5 33.5 L 0.5 12.5 L 0.5 8.5 z" style="fill:#7CD622;fill-opacity:1;stroke:#57AD02;stroke-width:1;stroke-linecap:round;stroke-opacity:1;" /><text style="font-size:10px;fill:#282828;font-family:sans-serif;text-anchor:end"><tspan x="48" y="24">set key</tspan></text><text style="font-size:6.666666666666667px;fill:#282828;font-family:sans-serif;text-anchor:end"><tspan x="48" y="12">key</tspan></text><text style="font-size:6.666666666666667px;fill:#282828;font-family:sans-serif;text-anchor:end"><tspan x="48" y="33">mode</tspan></text></g></g><g transform="translate(353, 182)"><g transform="scale(1.5, 1.5)"><path d="m8.5 0.5 L 85.755859375 0.5 L 85.755859375 20.5 L 8.5 20.5 L 8.5 12.5 L 8.5 11.5 L 2.5 11.5 L 2.5 14.5 L 0.5 14.5 L 0.5 6.5 L 2.5 6.5 L 2.5 9.5 L 8.5 9.5 L 8.5 8.5 z" style="fill:#7CD622;fill-opacity:1;stroke:#57AD02;stroke-width:1;stroke-linecap:round;stroke-opacity:1;" /><text style="font-size:10px;fill:#282828;font-family:sans-serif;text-anchor:start"><tspan x="13" y="14">C</tspan></text></g></g><g transform="translate(353, 214)"><g transform="scale(1.5, 1.5)"><path d="m8.5 0.5 L 118.5 0.5 L 118.5 20.5 L 8.5 20.5 L 8.5 12.5 L 8.5 11.5 L 2.5 11.5 L 2.5 14.5 L 0.5 14.5 L 0.5 6.5 L 2.5 6.5 L 2.5 9.5 L 8.5 9.5 L 8.5 8.5 z" style="fill:#7CD622;fill-opacity:1;stroke:#57AD02;stroke-width:1;stroke-linecap:round;stroke-opacity:1;" /><text style="font-size:10px;fill:#282828;font-family:sans-serif;text-anchor:start"><tspan x="13" y="14">major</tspan></text></g></g></svg>